<svg width="53" height="53" viewBox="0 0 53 53" fill="none" xmlns="http://www.w3.org/2000/svg">
<path d="M17.4885 5.44473C22.4648 5.44473 26.499 9.47891 26.499 14.4553L26.4988 38.9505C26.4988 44.6457 21.8817 49.2628 16.1863 49.2628C10.4908 49.2628 5.87378 44.6457 5.87378 38.9505C5.87378 38.6586 5.88594 38.3697 5.90971 38.0839C3.76346 35.7782 2.4093 31.2682 2.4093 27.5051C2.4093 22.3774 4.92361 17.3918 8.53029 15.432C8.49569 15.1112 8.47794 14.7853 8.47794 14.4553C8.47794 9.47891 12.5121 5.44473 17.4885 5.44473Z" stroke="black" stroke-linecap="round" stroke-linejoin="round"/>
<path d="M13.2919 21.5562C11.9688 21.2546 8.97079 19.2884 8.51843 15.4553" stroke="black" stroke-linecap="round" stroke-linejoin="round"/>
<path d="M18.8152 31.6667C24.2193 31.0635 26.3609 25.3603 26.5001 23.0405" stroke="black" stroke-linecap="round" stroke-linejoin="round"/>
<path d="M8.66737 32.6777C7.32132 33.7405 6.24811 36.1491 5.90039 38.0786" stroke="black" stroke-linecap="round" stroke-linejoin="round"/>
<path d="M35.5107 5.44473C30.5343 5.44473 26.5001 9.47891 26.5001 14.4553L26.5003 38.9505C26.5003 44.6457 31.1174 49.2628 36.8128 49.2628C42.5083 49.2628 47.1253 44.6457 47.1253 38.9505C47.1253 38.6586 47.1132 38.3697 47.0894 38.0839C49.2355 35.7782 50.5896 31.2682 50.5896 27.5051C50.5896 22.3774 48.0756 17.3918 44.4689 15.432C44.5034 15.1112 44.5211 14.7853 44.5211 14.4553C44.5211 9.47891 40.4871 5.44473 35.5107 5.44473Z" stroke="black" stroke-linecap="round" stroke-linejoin="round"/>
<path d="M39.7073 21.5562C41.0304 21.2546 44.0283 19.2884 44.4807 15.4553" stroke="black" stroke-linecap="round" stroke-linejoin="round"/>
<path d="M34.1839 31.6667C28.7798 31.0635 26.6383 25.3603 26.499 23.0405" stroke="black" stroke-linecap="round" stroke-linejoin="round"/>
<path d="M44.3319 32.6777C45.6777 33.7405 46.751 36.1491 47.0989 38.0786" stroke="black" stroke-linecap="round" stroke-linejoin="round"/>
</svg>
