<svg width="46" height="46" viewBox="0 0 46 46" fill="none" xmlns="http://www.w3.org/2000/svg">
<path d="M20.4832 36.5913C21.8758 37.488 23.5333 37.881 25.1803 37.705C26.8272 37.5291 28.3645 36.7947 29.536 35.6242L30.5568 34.6034C31.0097 34.1457 31.2635 33.5278 31.2635 32.8842C31.2635 32.2403 31.0097 31.6224 30.5568 31.165L26.2588 26.8936C25.8057 26.4425 25.1923 26.1893 24.553 26.1893C23.9136 26.1893 23.3002 26.4425 22.8471 26.8936C22.3895 27.3464 21.7717 27.6004 21.1279 27.6004C20.4841 27.6004 19.8663 27.3464 19.4087 26.8936L12.5586 20.0435C12.1058 19.5859 11.8519 18.9681 11.8519 18.3243C11.8519 17.6805 12.1058 17.0627 12.5586 16.6051C13.0097 16.152 13.263 15.5386 13.263 14.8993C13.263 14.2599 13.0097 13.6465 12.5586 13.1934L8.42166 8.89534C7.96402 8.44257 7.34622 8.18863 6.70242 8.18863C6.05864 8.18863 5.44084 8.44257 4.98318 8.89534L3.96238 9.91614C2.77076 11.0714 2.01135 12.6003 1.81092 14.2478C1.61047 15.8954 1.98112 17.5618 2.861 18.969C7.54519 25.9233 13.5289 31.9069 20.4832 36.5913Z" stroke="black" stroke-linecap="round" stroke-linejoin="round"/>
<path d="M44.2424 10.421H35.2136C34.8226 10.421 34.5059 10.1042 34.5059 9.7133C34.5059 9.54189 34.568 9.37629 34.681 9.24726L41.1213 1.88683C41.2485 1.74148 41.4321 1.65811 41.6253 1.65811C41.9953 1.65811 42.295 1.95797 42.295 2.32786V13.342" stroke="black" stroke-linecap="round" stroke-linejoin="round"/>
<path d="M29.0818 13.342H21.2925V11.6823C21.2925 10.5218 21.9795 9.47138 23.0426 9.00622L27.377 7.10997C28.4126 6.6569 29.0818 5.6337 29.0818 4.50331C29.0818 2.93195 27.8079 1.65811 26.2365 1.65811H24.2134C22.9416 1.65811 21.8597 2.47093 21.4587 3.60543" stroke="black" stroke-linecap="round" stroke-linejoin="round"/>
</svg>
