<svg width="47" height="47" viewBox="0 0 47 47" fill="none" xmlns="http://www.w3.org/2000/svg">
<path d="M28.5357 11.75V8.39286C28.5357 7.50248 28.182 6.64859 27.5524 6.01899C26.9228 5.38943 26.0689 5.03572 25.1786 5.03572H21.8214" stroke="black" stroke-linecap="round" stroke-linejoin="round"/>
<path d="M13.4286 35.25H5.03573C4.14535 35.25 3.29146 34.8962 2.66187 34.2667C2.03229 33.6372 1.67859 32.7832 1.67859 31.8929V8.39286C1.67859 7.50248 2.03229 6.64859 2.66187 6.01899C3.29146 5.38943 4.14535 5.03572 5.03573 5.03572H8.39287" stroke="black" stroke-linecap="round" stroke-linejoin="round"/>
<path d="M41.9643 18.4643H25.1786C23.3245 18.4643 21.8214 19.9673 21.8214 21.8214V41.9643C21.8214 43.8184 23.3245 45.3214 25.1786 45.3214H41.9643C43.8184 45.3214 45.3214 43.8184 45.3214 41.9643V21.8214C45.3214 19.9673 43.8184 18.4643 41.9643 18.4643Z" stroke="black" stroke-linecap="round" stroke-linejoin="round"/>
<path d="M22.6607 1.67857H7.55359L8.93002 7.11714C9.01388 7.48116 9.2191 7.80579 9.51198 8.03764C9.80485 8.26948 10.1679 8.39477 10.5414 8.39286H19.6729C20.0464 8.39477 20.4095 8.26948 20.7023 8.03764C20.9952 7.80579 21.2004 7.48116 21.2843 7.11714L22.6607 1.67857Z" stroke="black" stroke-linecap="round" stroke-linejoin="round"/>
<path d="M28.5358 28.5357H38.6072" stroke="black" stroke-linecap="round" stroke-linejoin="round"/>
<path d="M28.5358 35.25H38.6072" stroke="black" stroke-linecap="round" stroke-linejoin="round"/>
</svg>
