<svg width="46" height="46" viewBox="0 0 46 46" fill="none" xmlns="http://www.w3.org/2000/svg">
<path d="M42.7142 4.10715H3.28568C2.37836 4.10715 1.64282 4.84269 1.64282 5.75V32.0357C1.64282 32.9429 2.37836 33.6786 3.28568 33.6786H42.7142C43.6214 33.6786 44.3571 32.9429 44.3571 32.0357V5.75C44.3571 4.84269 43.6214 4.10715 42.7142 4.10715Z" stroke="black" stroke-linecap="round" stroke-linejoin="round"/>
<path d="M19.7143 33.6786L16.4286 41.8928" stroke="black" stroke-linecap="round" stroke-linejoin="round"/>
<path d="M26.2856 33.6786L29.5714 41.8928" stroke="black" stroke-linecap="round" stroke-linejoin="round"/>
<path d="M13.1428 41.8929H32.8571" stroke="black" stroke-linecap="round" stroke-linejoin="round"/>
<path d="M20.7074 9.81062C19.9282 9.81062 19.2965 10.4423 19.2965 11.2214V15.1895H15.3285C14.5494 15.1895 13.9177 15.8211 13.9177 16.6003V21.1855C13.9177 21.9647 14.5494 22.5964 15.3285 22.5964H19.2965V26.5643C19.2965 27.3435 19.9282 27.9751 20.7074 27.9751H25.2926C26.0717 27.9751 26.7034 27.3435 26.7034 26.5643V22.5964H30.6714C31.4506 22.5964 32.0822 21.9647 32.0822 21.1855V16.6003C32.0822 15.8211 31.4506 15.1895 30.6714 15.1895H26.7034V11.2214C26.7034 10.4423 26.0717 9.81062 25.2926 9.81062H20.7074Z" stroke="black" stroke-linecap="round" stroke-linejoin="round"/>
</svg>
